<mxfile host="app.diagrams.net" modified="2024-05-13T17:11:31.178Z" agent="Mozilla/5.0 (Windows NT 10.0; Win64; x64) AppleWebKit/537.36 (KHTML, like Gecko) Chrome/124.0.0.0 Safari/537.36" version="24.4.0" etag="YxtATY-3i2hhYGcI58XS" type="github">
  <diagram name="Strona-1" id="CCLgZAF0_zpvlI-fcdI1">
    <mxGraphModel>
      <root>
        <mxCell id="0" />
        <mxCell id="1" parent="0" />
      </root>
    </mxGraphModel>
  </diagram>
</mxfile>
